HIERARCHY
ROOT Hips
{
  OFFSET 13.6774 106.653 -34.4427
  CHANNELS 6 Xposition Yposition Zposition Zrotation Xrotation Yrotation
  JOINT ToSpine
  {
    OFFSET -2.69724 7.43032 -0.144315
    CHANNELS 3 Zrotation Xrotation Yrotation
    JOINT Spine
    {
      OFFSET -0.0310711 10.7595 1.96963
      CHANNELS 3 Zrotation Xrotation Yrotation
      JOINT Spine1
      {
        OFFSET 19.9056 3.91189 0.764692
        CHANNELS 3 Zrotation Xrotation Yrotation
        JOINT Neck
        {
          OFFSET 25.9749 7.03908 -0.130764
          CHANNELS 3 Zrotation Xrotation Yrotation
          JOINT Head
          {
            OFFSET 9.52751 0.295786 -0.907742
            CHANNELS 3 Zrotation Xrotation Yrotation
            End Site
            {
              OFFSET 16.4037 0.713936 2.7358
            }
          }
        }
        JOINT LeftShoulder
        {
          OFFSET 17.7449 4.33886 11.7777
          CHANNELS 3 Zrotation Xrotation Yrotation
          JOINT LeftArm
          {
            OFFSET 0.911315 1.27913 9.80584
            CHANNELS 3 Zrotation Xrotation Yrotation
            JOINT LeftForeArm
            {
              OFFSET 28.6126 1.18197 -3.53199
              CHANNELS 3 Zrotation Xrotation Yrotation
              JOINT LeftHand
              {
                OFFSET 27.5088 0.0218783 0.327423
                CHANNELS 3 Zrotation Xrotation Yrotation
                End Site
                {
                  OFFSET 18.6038 -0.000155887 0.382096
                }
              }
            }
          }
        }
        JOINT RightShoulder
        {
          OFFSET 17.1009 2.89543 -12.2328
          CHANNELS 3 Zrotation Xrotation Yrotation
          JOINT RightArm
          {
            OFFSET 1.4228 0.178766 -10.211
            CHANNELS 3 Zrotation Xrotation Yrotation
            JOINT RightForeArm
            {
              OFFSET 28.733 1.87905 2.64907
              CHANNELS 3 Zrotation Xrotation Yrotation
              JOINT RightHand
              {
                OFFSET 27.4588 0.290562 -0.101845
                CHANNELS 3 Zrotation Xrotation Yrotation
                End Site
                {
                  OFFSET 17.8396 -0.255518 -0.000602873
                }
              }
            }
          }
        }
      }
    }
  }
  JOINT LeftUpLeg
  {
    OFFSET -5.61296 -2.22332 -10.2353
    CHANNELS 3 Zrotation Xrotation Yrotation
    JOINT LeftLeg
    {
      OFFSET 2.56703 -44.7417 -7.93097
      CHANNELS 3 Zrotation Xrotation Yrotation
      JOINT LeftFoot
      {
        OFFSET 3.16933 -46.5642 -3.96578
        CHANNELS 3 Zrotation Xrotation Yrotation
        JOINT LeftToeBase
        {
          OFFSET 0.346054 -6.02161 12.8035
          CHANNELS 3 Zrotation Xrotation Yrotation
          End Site
          {
            OFFSET 0.134235 -1.35082 5.13018
          }
        }
      }
    }
  }
  JOINT RightUpLeg
  {
    OFFSET -5.7928 -1.72406 10.6446
    CHANNELS 3 Zrotation Xrotation Yrotation
    JOINT RightLeg
    {
      OFFSET -2.57161 -44.7178 -7.85259
      CHANNELS 3 Zrotation Xrotation Yrotation
      JOINT RightFoot
      {
        OFFSET -3.10148 -46.5936 -4.03391
        CHANNELS 3 Zrotation Xrotation Yrotation
        JOINT RightToeBase
        {
          OFFSET -0.0828122 -6.13587 12.8035
          CHANNELS 3 Zrotation Xrotation Yrotation
          End Site
          {
            OFFSET -0.131328 -1.35082 5.13018
          }
        }
      }
    }
  }
}
MOTION
Frames: 21
Frame Time: 0.03333333333333333
0.0000 93.1000 0.0000 53.0888 -37.2512 -28.8621 -70.7016 -0.5961 88.1096 88.7924 66.9510 -5.5108 -3.1459 16.9730 1.4735 -166.6953 19.9693 175.1209 -160.2559 59.9984 -175.3226 0.0257 -13.4243 -27.7855 -84.4408 44.8131 -76.7728 14.7143 -10.8409 -123.5646 -0.4208 0.2925 0.4875 -2.7324 6.7706 43.2194 -67.7613 -45.8834 50.8802 14.7529 -0.5851 88.1103 0.1673 -0.1395 0.0281 -65.9601 -8.9324 88.4311 -3.7534 43.7701 -17.2389 -7.8523 5.5735 1.6242 2.7284 -5.9733 -0.4447 -24.5668 1.4527 85.8458 1.0328 19.7526 18.2012 8.7567 11.5323 -2.7184 1.8135 -16.4038 -20.0106 
0.0000 93.1000 0.0000 50.3639 -38.9869 -32.6087 -70.6593 -0.6513 87.9766 85.6479 68.1401 -4.0808 -3.1666 17.4880 1.8391 -168.5897 19.8946 175.7120 -160.3559 59.7276 -175.5190 0.0099 -13.3358 -28.0447 -82.3232 44.9516 -77.5852 14.4101 -9.3782 -121.4750 -0.9486 0.2539 0.4208 -2.8812 6.7616 43.0675 -68.7628 -43.5739 52.8917 14.4917 -0.7279 88.5704 -0.1172 -0.0665 0.0069 -62.2591 -10.5183 90.6883 -3.7870 39.0332 -15.5951 -5.3666 1.7374 0.8465 5.1871 -12.2574 1.5892 -21.6074 4.1339 94.9007 1.7596 34.8836 9.9427 3.6303 4.8597 -1.5859 0.1666 -24.1416 -24.6718 
0.0000 93.1000 0.0000 52.4866 -42.0423 -29.8236 -70.6870 -0.1407 87.7959 97.6638 69.0187 -13.6923 -4.6685 18.5609 2.1939 -166.2805 20.7342 174.3303 -157.7918 60.0328 -176.4860 0.3844 -13.4651 -29.1630 -80.4726 45.8530 -74.9063 14.4399 -6.7547 -115.0642 -0.1879 -0.1019 0.0446 -2.9514 6.5924 43.7019 -67.7562 -40.4100 59.5608 14.7076 -0.9052 87.3993 0.0801 0.3704 -0.1554 -58.8639 -10.1438 91.2442 -3.9659 40.8062 -14.0675 -4.9293 -3.3534 0.1876 7.9710 -18.2775 2.6727 -23.0741 5.3863 95.0810 2.8874 52.9456 3.0139 -2.6602 0.5215 -0.0305 1.7488 -26.6649 -23.3719 
0.0000 93.1000 0.0000 54.3172 -43.0641 -27.9269 -70.7888 0.0944 87.8860 107.5337 69.2177 -23.1777 -6.8583 19.0837 3.5646 -164.5377 21.3019 174.5698 -157.0058 60.9075 -174.9403 0.5966 -13.7014 -30.6099 -78.9929 46.8633 -72.9070 15.8583 -4.7258 -103.9903 -0.0766 -0.6286 0.0505 -3.3305 6.5532 44.7394 -67.7588 -36.0240 66.1083 14.5513 -1.7098 84.9900 -0.5827 0.9542 -0.4981 -52.3901 -9.3598 91.4160 -5.0222 47.3902 -11.7435 -1.1492 -14.4248 -0.8141 6.1480 -14.4508 5.5477 -27.3393 4.0952 92.7912 5.9404 69.1577 -8.0220 -5.6174 -2.6820 0.1912 1.3346 -22.2784 -15.6957 
0.0000 93.1000 0.0000 53.7664 -43.9888 -29.5716 -70.8356 0.0936 87.7121 107.7126 70.2441 -24.0560 -6.6708 19.9034 4.0552 -164.8501 22.2326 173.5800 -155.5971 61.1763 -177.5647 0.2063 -13.8687 -31.8880 -78.0132 48.0680 -71.7511 17.3101 -1.0714 -91.7080 -0.1479 -0.1509 -0.4274 -2.9488 6.3942 45.9120 -68.3492 -32.0569 73.7960 14.4462 -2.1189 83.9878 -0.2904 0.3625 -0.0813 -42.3413 -8.1411 90.9184 -5.5863 56.0825 -14.0054 1.0997 -18.7697 -2.2514 5.3592 -15.3664 15.3146 -31.6456 1.5881 92.0597 15.1216 79.1973 -19.2013 -6.7395 -1.8167 0.6469 1.4122 -23.5183 -14.6281 
0.0000 93.1000 0.0000 56.4553 -45.2075 -28.5851 -70.7305 1.8274 87.5843 107.7683 71.1695 -25.3297 -4.9729 21.5601 4.3787 -165.7833 22.8746 171.4780 -155.8919 62.0989 -178.0939 1.0789 -14.1585 -32.2161 -74.1002 49.7800 -69.6611 15.2160 2.0093 -81.5385 0.2617 -0.1987 -1.0772 -1.6066 5.8951 47.0423 -66.6251 -29.1211 81.5856 14.4308 -1.1812 85.7720 0.7217 0.4359 0.6201 -35.1993 -7.6360 92.1726 -8.1359 60.4820 -14.4716 4.1699 -17.1753 -3.8011 5.4882 -16.3591 21.2154 -42.5628 -0.7638 91.7445 26.3005 82.9169 -29.2368 -9.5710 -0.9837 2.9113 3.0074 -22.2791 -9.7426 
0.0000 93.1000 0.0000 59.5027 -47.1148 -26.9870 -70.8764 0.5053 87.8354 113.8544 72.5020 -30.5905 -5.2992 22.8111 4.0128 -164.8166 24.2017 172.6124 -153.5107 63.0656 178.2097 0.3615 -15.1297 -32.8431 -70.1338 52.8006 -64.7552 12.8263 2.2548 -79.7401 -0.2543 -0.2185 0.4494 -2.6082 6.9803 42.0366 -66.1701 -31.8707 89.0630 15.2918 0.3314 91.9850 0.3194 0.5644 0.0699 -32.0311 -7.3211 92.0046 -6.3101 59.2204 -7.0145 6.6046 -15.9561 -2.4576 3.2488 -10.9066 13.0749 -55.6828 -2.9423 91.4197 12.3439 76.9391 -16.1278 -9.1479 2.4068 0.3699 1.6323 -18.9075 -2.5021 
0.0000 93.1000 0.0000 56.4046 -47.8852 -28.3058 -70.6316 0.5772 87.5981 110.6806 75.3435 -26.1206 -4.3176 24.8006 3.1415 -161.8418 25.7617 172.9812 -153.8877 64.6029 177.9475 0.4964 -13.3339 -30.9038 -65.9491 55.5930 -61.8280 13.7187 1.6869 -81.0553 0.1678 -0.1012 -0.3913 -2.1970 6.9529 39.9500 -64.7610 -34.7889 94.0951 15.7419 2.3477 98.8367 0.2874 0.3052 -0.0279 -28.1580 -5.0962 90.9417 -4.2457 51.9374 -5.1007 4.1988 -8.4784 -1.9545 2.1479 -6.6929 4.9334 -65.2954 -4.6548 92.1232 3.9402 64.8046 -8.9021 -2.8291 7.3796 -0.1990 0.9486 -8.8686 -1.8530 
0.0000 93.1000 0.0000 54.4399 -47.3261 -28.5588 -70.5704 1.0952 87.5353 109.0553 77.0256 -21.5531 -4.4287 26.9186 1.7104 -161.6736 27.8976 173.0681 -153.0878 66.7029 176.9228 0.9363 -12.2657 -28.0020 -64.4337 60.0128 -58.5110 12.8594 0.7432 -83.8047 0.3355 -0.0354 -0.4543 -1.6916 6.9120 39.1056 -63.7664 -35.3830 97.0199 17.3471 4.1414 104.7751 0.3527 0.1982 0.4021 -27.5986 -3.1269 88.3292 -3.0450 35.8718 -8.1572 -1.0518 3.1668 -0.5119 1.1822 -4.1171 0.1286 -72.3605 -3.1023 92.0007 2.1631 49.9721 -5.0951 -0.8899 9.7507 0.0765 0.1968 -2.8003 -3.7950 
0.0000 93.1000 0.0000 51.6367 -44.8638 -27.3368 -70.4028 1.3803 87.5427 106.7402 77.0137 -15.2679 -4.1511 27.2657 0.1005 -162.7664 30.1378 172.4324 -151.8764 69.0764 174.2339 1.0638 -11.6952 -26.1776 -65.9494 62.8950 -52.5243 12.7368 0.2368 -87.1175 -0.2482 0.2049 -0.2508 -1.3561 6.3927 38.7662 -63.0085 -35.9223 97.2306 16.2768 7.0141 111.7424 0.5722 -0.1026 0.3570 -26.3560 1.2771 92.2196 -1.1531 23.3264 -21.8498 -6.3427 12.6037 0.7715 2.9269 -9.9280 6.7411 -73.8719 -0.0966 91.9506 1.2107 38.9744 0.0632 -4.9085 11.2349 0.9250 1.6663 -8.8199 -5.4502 
0.0000 93.1000 0.0000 47.1952 -43.2704 -29.3733 -70.5111 0.9367 87.6327 88.9657 77.2110 5.3838 -2.3320 27.8506 -1.4321 -163.8413 32.0730 171.5946 -150.1698 71.1162 172.1398 0.6256 -11.9391 -26.2801 -67.1409 62.7163 -49.6024 12.4414 0.1387 -88.7576 -0.0316 0.2674 -0.8283 -1.4929 5.8020 38.6623 -63.7891 -37.1333 95.7850 18.0504 8.6649 116.0091 0.5041 -0.3390 0.2635 -20.0557 1.9793 88.2517 -2.4422 29.9826 -18.4203 -4.7790 8.4928 0.1145 4.3159 -12.2809 13.5818 -70.4189 3.1521 91.4569 1.1010 33.9653 -0.7882 -6.4391 9.1903 1.1472 1.4070 -9.6941 -3.3103 
0.0000 93.1000 0.0000 50.1284 -42.3314 -28.5198 -70.7319 1.4633 87.7314 96.7133 76.3030 -4.0643 -3.1115 26.2590 0.5617 -163.8285 34.0092 171.5345 -153.2237 72.7989 174.0551 1.0350 -12.0888 -27.6603 -71.7940 61.2445 -46.7315 15.0806 -0.1834 -89.2107 0.6714 -0.1706 -1.0833 -1.3353 5.5614 40.3802 -63.8304 -38.1424 91.8918 16.8581 7.4721 115.5121 0.3363 0.1675 0.5913 -20.6201 0.9569 87.4110 -3.9933 42.8133 -12.4182 -5.9044 3.8694 -0.2169 5.3616 -14.5536 14.1334 -67.9008 1.6969 88.3415 -0.1868 35.2149 -1.5779 -9.8108 6.0320 2.0224 2.6490 -12.7140 -3.8217 
0.0000 93.1000 0.0000 54.5120 -41.8881 -28.7685 -70.5690 1.0438 87.7999 111.0462 74.5163 -23.8183 -5.5000 24.8434 2.4873 -161.8288 35.9261 170.8488 -153.8432 74.7792 172.9094 0.7833 -12.2251 -28.9500 -70.2346 59.6826 -52.7592 14.3640 0.2722 -88.1563 0.4284 -0.1677 0.0251 -1.7710 5.8833 42.0374 -66.8637 -37.2744 85.9700 20.6331 7.8268 109.9562 0.0968 0.2179 0.3580 -24.6678 0.2322 91.8959 -5.7705 58.4120 -6.1843 -5.6675 0.3524 -0.0249 2.5213 -8.9299 12.4923 -65.2500 0.3913 89.7217 0.8198 37.9291 -3.0750 -7.1057 2.7481 1.1926 0.0013 -12.3784 -2.4495 
0.0000 93.1000 0.0000 55.0479 -41.2072 -30.3716 -70.4088 0.4017 87.5692 108.8472 72.9004 -25.0479 -5.6874 24.2160 3.1066 -161.8578 36.2131 170.2734 -152.8174 75.0293 171.7769 0.0541 -13.0282 -31.4337 -72.1194 57.1334 -55.0237 13.8855 -0.2597 -89.1552 0.1346 0.3998 0.2643 -1.8786 6.0207 43.8799 -68.6268 -35.8222 80.9149 22.3403 4.9264 103.0238 0.6092 -0.3774 0.3515 -27.0546 -0.0564 94.2121 -11.6394 71.7738 1.7591 -4.9368 2.5013 -0.2650 2.4792 -10.7900 10.4900 -58.5416 0.8939 90.8133 1.2946 41.0286 -0.7846 -6.0044 -1.6706 1.1640 2.4385 -32.3942 -13.2740 
0.0000 93.1000 0.0000 56.1244 -41.0031 -31.0504 -70.5780 -0.7342 87.8542 105.8484 72.3016 -22.8184 -5.0694 22.8365 2.5887 -162.8599 35.9005 170.4373 -154.3663 74.8961 172.8883 -0.5975 -13.8145 -32.8906 -72.7483 53.0899 -57.6925 14.9615 -0.8733 -90.2882 -0.3236 0.4400 0.2990 -2.7658 6.0599 44.9930 -68.7174 -36.0481 77.1009 17.9790 2.3372 95.5226 -0.3000 -0.4447 -0.2623 -33.2042 0.5901 94.9912 -25.6939 80.0971 16.6653 -4.6755 3.0337 0.4109 2.3908 -8.4376 8.2601 -50.9255 0.4757 87.8797 1.2754 46.9952 -8.4284 -10.5772 -13.8367 1.2932 2.4048 -27.6272 -1.0388 
0.0000 93.1000 0.0000 55.9618 -39.8154 -28.2605 -70.4451 -0.8881 88.0008 104.9234 70.2463 -19.8685 -5.2481 20.9498 2.0161 -162.9083 33.9737 171.2062 -153.5683 73.0131 173.5048 -0.9327 -13.9903 -34.3094 -74.1203 48.9852 -65.1179 12.8046 -1.3679 -91.2546 0.0379 0.8829 0.2524 -2.6161 5.5470 46.0374 -67.8156 -35.4069 74.9828 14.5149 -1.3282 85.8936 0.1456 -0.8353 0.2571 -40.8751 1.7219 94.2641 -43.2882 83.0757 32.6557 -4.0057 5.4235 0.0716 1.7353 -8.2698 7.8919 -40.8594 3.7418 87.9338 3.2162 54.0910 -1.3908 -5.9081 -22.4376 1.1902 3.4444 -14.3577 -21.0040 
0.0000 93.1000 0.0000 58.0704 -40.1851 -26.9368 -70.4512 -0.0936 87.8401 108.8765 68.4509 -22.8044 -5.2192 19.4412 0.9870 -162.9368 32.1478 170.4448 -154.7027 71.0791 173.5985 -0.1124 -14.4852 -34.2670 -73.2517 44.9166 -71.7137 13.1763 -1.2302 -93.1902 -0.0635 -0.0501 -0.1815 -2.6800 6.0691 45.9649 -65.6002 -34.6417 72.9120 14.1149 -3.1811 78.8282 0.5034 0.2762 -0.0124 -50.9932 -1.5010 93.4157 -28.1519 81.3345 18.3807 -4.3806 6.4912 0.8112 1.1854 -6.8658 4.4444 -32.1422 3.1443 84.9155 2.7564 59.1712 -5.5451 -4.2374 -24.1636 1.2653 2.3131 -6.9207 -13.9998 
0.0000 93.1000 0.0000 56.0225 -42.0117 -28.0520 -70.5888 0.4403 87.8960 105.1233 68.5240 -19.3681 -4.3203 19.3194 1.9006 -163.0338 30.9844 171.6707 -156.4875 69.7035 176.6169 0.1515 -15.7627 -34.7427 -75.0291 41.2319 -74.7796 13.8242 -2.2669 -99.4785 0.1699 -0.3515 -0.4902 -2.4903 6.3647 45.9556 -64.6355 -35.9340 69.1197 12.6597 -3.7970 76.9444 0.1693 0.6048 -0.1572 -61.9093 -3.1507 93.5884 -11.2140 70.8549 1.3476 -8.1905 9.0331 1.8381 -1.0043 0.2085 3.3840 -26.4319 5.8828 83.8294 1.8623 54.9797 -4.6203 -5.1369 -19.0056 1.3750 1.7929 -0.4442 -14.3263 
0.0000 93.1000 0.0000 55.0173 -39.9936 -27.0372 -70.7771 0.9166 87.8170 103.8141 67.2567 -17.8103 -3.8107 18.2275 2.1573 -162.9035 28.5238 170.5095 -156.2455 67.1460 175.4811 0.7423 -15.1066 -32.5146 -75.2511 39.6708 -78.9154 12.3907 -4.2267 -106.2527 -0.1645 -0.5501 -0.4774 -2.1470 6.3778 46.0898 -64.6536 -37.1480 64.9012 11.5444 -2.4997 79.6423 0.3369 0.8513 0.3660 -67.9585 -5.9938 90.0965 -6.4888 57.8608 -7.1115 -13.2180 12.5141 3.0319 -2.2591 3.6330 1.6147 -23.9421 5.1606 82.9838 0.8028 43.8082 -5.5692 -4.9302 -6.3738 0.8001 0.0151 3.1507 -3.3670 
0.0000 93.1000 0.0000 52.0226 -37.8785 -29.1200 -70.7512 0.7437 87.7320 97.8559 67.2769 -13.4894 -4.1004 16.8564 3.4711 -161.2148 26.2734 168.2589 -152.4615 64.8311 173.1176 0.7285 -14.7168 -31.2404 -76.1049 39.1198 -80.8274 12.7999 -6.3343 -113.0973 0.0309 -0.2712 -0.1805 -1.9353 5.9665 45.7575 -65.9147 -38.4005 61.8926 11.9348 -2.1496 81.9868 0.4285 0.5427 0.8155 -67.7711 -9.9326 86.2870 -5.2493 49.2032 -14.0528 -11.0395 11.1977 2.6101 -2.8065 4.4475 2.3918 -24.1376 3.9548 83.8085 1.7396 24.0485 1.5875 2.0087 11.4102 -1.0908 -1.3615 3.9751 -1.5287 
0.0000 93.1000 0.0000 48.9520 -38.1073 -32.0285 -70.5674 0.7190 87.5909 91.8617 66.9608 -9.0081 -3.3038 16.3791 4.0337 -165.0499 24.8994 169.7053 -152.4720 63.1459 174.0874 0.7283 -14.7461 -31.2032 -77.7999 38.8322 -78.7844 13.9233 -8.6722 -119.3176 0.7696 -0.3762 -0.2806 -1.8527 5.9451 43.9128 -66.5796 -39.6240 60.2146 12.7912 -1.3804 86.0277 0.8371 0.6153 0.5577 -65.8597 -10.8124 88.8145 -3.8763 41.9096 -15.3230 -3.3745 8.7945 1.1724 1.4268 -3.7347 -5.7445 -23.0582 3.0989 83.9593 2.4530 15.7554 19.6381 8.4611 17.2047 -2.6512 2.2588 -15.4653 -23.5645 
